Coordinates
version=1
nRows=16
nColumns=63
inDegrees=yes

Units are S.I. units (second, meters, Newtons, ...)
If the header above contains a line with 'inDegrees', this indicates whether rotational values are in degrees (yes) or radians (no).

endheader
time	pelvis_tilt	pelvis_list	pelvis_rotation	pelvis_tx	pelvis_ty	pelvis_tz	hip_flexion_r	hip_adduction_r	hip_rotation_r	knee_angle_r	knee_angle_r_beta	ankle_angle_r	subtalar_angle_r	mtp_angle_r	hip_flexion_l	hip_adduction_l	hip_rotation_l	knee_angle_l	knee_angle_l_beta	ankle_angle_l	subtalar_angle_l	mtp_angle_l	L5_S1_Flex_Ext	L5_S1_Lat_Bending	L5_S1_axial_rotation	L4_L5_Flex_Ext	L4_L5_Lat_Bending	L4_L5_axial_rotation	L3_L4_Flex_Ext	L3_L4_Lat_Bending	L3_L4_axial_rotation	L2_L3_Flex_Ext	L2_L3_Lat_Bending	L2_L3_axial_rotation	L1_L2_Flex_Ext	L1_L2_Lat_Bending	L1_L2_axial_rotation	L1_T12_Flex_Ext	L1_T12_Lat_Bending	L1_T12_axial_rotation	Abs_r3	Abs_r2	Abs_r1	Abs_t1	Abs_t2	neck_flexion	neck_bending	neck_rotation	arm_flex_r	arm_add_r	arm_rot_r	elbow_flex_r	pro_sup_r	wrist_flex_r	wrist_dev_r	arm_flex_l	arm_add_l	arm_rot_l	elbow_flex_l	pro_sup_l	wrist_flex_l	wrist_dev_l
0.000000	2.769128	-4.568117	87.910095	0.184290	0.652658	0.626645	10.039828	4.161858	-1.499526	7.897299	0.137834	26.170297	-10.501740	0.000000	5.617872	-4.476280	-5.502086	1.055470	0.018421	31.023337	12.630116	0.000000	-0.110207	0.975032	0.259017	-0.204666	1.296792	0.275206	-0.181059	2.370692	0.275206	-0.125956	2.370692	0.226640	-0.102338	1.988284	0.210452	-0.062972	1.510324	0.194263	-0.787198	11.029752	1.440576	0.000000	0.000000	22.568423	-8.764701	-3.028258	-1.144113	-18.012388	19.936770	34.163986	82.823486	-4.035965	9.647466	9.096087	-3.696908	166.446030	0.221445	39.339909	-24.276463	-2.587857
0.016949	3.252215	-4.328957	88.244621	0.183157	0.653753	0.627390	9.767074	4.462443	-2.606592	7.391596	0.129008	26.898783	-8.727772	0.000000	5.592478	-4.856280	-6.216744	1.226178	0.021401	30.753518	13.431524	0.000000	-0.147775	1.047407	-0.053331	-0.274432	1.393052	-0.056664	-0.242779	2.546666	-0.056664	-0.168892	2.546666	-0.046665	-0.137224	2.135873	-0.043332	-0.084438	1.622434	-0.039998	-1.055539	11.848480	-0.296612	0.000000	0.000000	21.803523	-8.941475	-1.441149	-0.358007	-18.314764	20.464888	32.904582	79.741596	-4.227510	9.146320	9.327884	-3.877679	162.969043	0.320173	35.748886	-19.324185	0.814657
0.033898	3.646877	-4.134972	88.574132	0.182105	0.654701	0.627859	9.522086	4.691448	-3.611746	6.974311	0.121725	27.475101	-7.155720	0.000000	5.567321	-5.156301	-6.755177	1.363864	0.023804	30.546316	14.049136	0.000000	-0.175006	1.106227	-0.307661	-0.325004	1.471282	-0.326890	-0.287517	2.689680	-0.326890	-0.200014	2.689680	-0.269204	-0.162511	2.255818	-0.249975	-0.099998	1.713545	-0.230746	-1.250051	12.513858	-1.711120	0.000000	0.000000	21.228132	-9.015624	-0.222235	0.437875	-18.594943	21.556200	31.961577	77.918676	-4.253516	8.496574	9.590451	-3.943796	159.787578	0.418040	32.071016	-15.750815	2.973889
0.050847	3.960793	-3.981112	88.895171	0.181132	0.655518	0.628083	9.301914	4.856075	-4.514519	6.638896	0.115871	27.908317	-5.779948	0.000000	5.541166	-5.383713	-7.135663	1.471880	0.025689	30.395825	14.498522	0.000000	-0.192968	1.152639	-0.508477	-0.358361	1.533010	-0.540257	-0.317028	2.802527	-0.540257	-0.220544	2.802527	-0.444918	-0.179190	2.350462	-0.413138	-0.110262	1.785438	-0.381358	-1.378353	13.038886	-2.827998	0.000000	0.000000	20.822661	-8.997260	0.659962	1.240770	-18.853308	23.152214	31.323628	77.148695	-4.128250	7.722310	9.885450	-3.899057	156.890689	0.513798	28.353576	-13.341158	4.019346
0.067797	4.201645	-3.862329	89.204282	0.180236	0.656220	0.628091	9.103610	4.963525	-5.314442	6.378804	0.111331	28.207493	-4.594822	0.000000	5.512779	-5.545885	-7.376479	1.553576	0.027115	30.296140	14.795252	0.000000	-0.202729	1.187794	-0.660283	-0.376487	1.579766	-0.701551	-0.333063	2.888002	-0.701551	-0.231699	2.888002	-0.577748	-0.188254	2.422149	-0.536480	-0.115839	1.839893	-0.495212	-1.448071	13.436563	-3.672297	0.000000	0.000000	20.567521	-8.896497	1.236917	2.047912	-19.090245	25.194436	30.979392	77.225622	-3.865977	6.847609	10.214540	-3.747257	154.267429	0.606199	24.643844	-11.880018	4.080535
0.084746	4.377113	-3.773572	89.498009	0.179415	0.656821	0.627913	8.924225	5.021000	-6.011045	6.187489	0.107992	28.381696	-3.594706	0.000000	5.480928	-5.650187	-7.495903	1.612302	0.028140	30.241358	14.954895	0.000000	-0.205354	1.212840	-0.767583	-0.381363	1.613077	-0.815557	-0.337376	2.948899	-0.815557	-0.234699	2.948899	-0.671636	-0.190692	2.473223	-0.623662	-0.117339	1.878689	-0.575688	-1.466824	13.719889	-4.269069	0.000000	0.000000	20.443123	-8.723445	1.540107	2.856539	-19.306138	27.624373	30.917524	77.943428	-3.480963	5.896553	10.579380	-3.492191	151.906851	0.693996	20.989098	-11.152198	3.286960
0.101695	4.494878	-3.709793	89.772895	0.178667	0.657337	0.627580	8.760809	5.035702	-6.603859	6.058402	0.105739	28.439989	-2.773966	0.000000	5.444379	-5.703988	-7.512211	1.651411	0.028823	30.225572	14.993020	0.000000	-0.201912	1.228927	-0.834882	-0.374971	1.634472	-0.887062	-0.331721	2.988012	-0.887062	-0.230765	2.988012	-0.730522	-0.187495	2.506027	-0.678342	-0.115373	1.903607	-0.626162	-1.442237	13.901864	-4.643363	0.000000	0.000000	20.429879	-8.488216	1.601007	3.663886	-19.501371	30.383532	31.126683	79.096081	-2.987476	4.893221	10.981630	-3.137655	149.798010	0.775941	17.436616	-10.942503	1.768127
0.118644	4.562620	-3.665941	90.025485	0.177990	0.657783	0.627121	8.610415	5.014833	-7.092416	5.984997	0.104458	28.391436	-2.126967	0.000000	5.401898	-5.714658	-7.443683	1.674252	0.029221	30.242879	14.925198	0.000000	-0.193469	1.237203	-0.866683	-0.359292	1.645480	-0.920851	-0.317851	3.008135	-0.920851	-0.221116	3.008135	-0.758348	-0.179655	2.522904	-0.704180	-0.110548	1.916427	-0.650012	-1.381931	13.995487	-4.820232	0.000000	0.000000	20.508199	-8.200923	1.451095	4.467189	-19.676329	33.413419	31.595523	80.477552	-2.399781	3.861695	11.422951	-2.687445	147.929958	0.850787	14.033674	-11.035736	-0.346457
0.135593	4.588020	-3.636967	90.252321	0.177383	0.658174	0.626566	8.470093	4.965594	-7.476245	5.960726	0.104034	28.245102	-1.648074	0.000000	5.352251	-5.689566	-7.308594	1.684175	0.029394	30.287373	14.766997	0.000000	-0.181093	1.238818	-0.867491	-0.336308	1.647628	-0.921709	-0.297518	3.012062	-0.921709	-0.206971	3.012062	-0.759055	-0.168163	2.526198	-0.704837	-0.103477	1.918929	-0.650618	-1.293529	14.013758	-4.824726	0.000000	0.000000	20.658495	-7.871677	1.121846	5.263684	-19.831398	36.655542	32.312703	81.881809	-1.732144	2.826056	11.905001	-2.145356	146.291749	0.917286	10.827552	-11.216700	-2.927287
0.152542	4.578759	-3.617821	90.449948	0.176843	0.658526	0.625945	8.336894	4.895187	-7.754878	5.979043	0.104354	28.010051	-1.331651	0.000000	5.294206	-5.636081	-7.125223	1.684533	0.029401	30.353149	14.533987	0.000000	-0.165850	1.234921	-0.841810	-0.308001	1.642445	-0.894423	-0.272475	3.002588	-0.894423	-0.189550	3.002588	-0.736584	-0.154009	2.518251	-0.683971	-0.094767	1.912893	-0.631358	-1.184652	13.969676	-4.681896	0.000000	0.000000	20.861179	-7.510591	0.644737	6.050607	-19.966960	40.051407	33.266878	83.102822	-0.998832	1.810384	12.429440	-1.515183	144.872437	0.974191	7.865526	-11.270201	-5.844856
0.169492	4.542516	-3.603455	90.614909	0.176368	0.658854	0.625288	8.207870	4.810814	-7.927846	6.033400	0.105303	27.695348	-1.172065	0.000000	5.226528	-5.561574	-6.911847	1.678675	0.029298	30.434302	14.241738	0.000000	-0.148808	1.226662	-0.794144	-0.276352	1.631460	-0.843778	-0.244477	2.982505	-0.843778	-0.170073	2.982505	-0.694876	-0.138184	2.501409	-0.645242	-0.085029	1.900099	-0.595608	-1.062924	13.876243	-4.416792	0.000000	0.000000	21.096661	-7.127775	0.051244	6.825194	-20.083402	43.542521	34.446704	83.934561	-0.214111	0.838762	12.997929	-0.800723	143.661075	1.020253	5.194874	-10.981041	-8.969660
0.186441	4.485705	-3.561595	90.735084	0.175944	0.659199	0.624699	8.057280	4.718834	-7.964979	6.119191	0.106800	27.332589	-1.162509	0.000000	5.128302	-5.468729	-6.687344	1.658776	0.028951	30.490711	13.972173	0.000000	-0.135077	1.213508	-0.742368	-0.250852	1.613965	-0.788766	-0.221918	2.950523	-0.788766	-0.154380	2.950523	-0.649572	-0.125433	2.474585	-0.603174	-0.077183	1.879723	-0.556776	-0.964842	13.727442	-4.128827	0.000000	0.000000	21.306386	-6.720022	-0.622677	7.557024	-20.139980	46.874179	35.982640	82.570290	0.698416	0.147505	13.629924	0.013593	141.913939	1.038916	1.690153	-8.900789	-11.887447
0.203390	4.430699	-3.503776	90.811528	0.175544	0.659618	0.624127	7.884468	4.638139	-7.892649	6.207258	0.108337	26.897274	-1.312769	0.000000	5.001027	-5.380202	-6.459391	1.637586	0.028581	30.562284	13.626463	0.000000	-0.121359	1.200812	-0.668862	-0.225377	1.597079	-0.710666	-0.199381	2.919653	-0.710666	-0.138702	2.919653	-0.585254	-0.112694	2.448695	-0.543450	-0.069345	1.860057	-0.501646	-0.866858	13.583820	-3.720008	0.000000	0.000000	21.480777	-6.327791	-1.373577	8.276943	-20.227056	50.353301	37.785674	80.137486	1.652182	-0.488894	14.366337	0.983615	140.843828	1.025478	-0.027610	-5.690026	-14.443639
0.220339	4.456681	-3.400793	90.818645	0.174897	0.660288	0.623640	7.667516	4.627999	-7.806279	6.302897	0.110006	26.361993	-1.454085	0.000000	4.811488	-5.360200	-6.196233	1.609773	0.028096	30.620928	13.121744	0.000000	-0.109142	1.200300	-0.548974	-0.202688	1.596399	-0.583285	-0.179310	2.918409	-0.583285	-0.124739	2.918409	-0.480352	-0.101349	2.447651	-0.446042	-0.062364	1.859264	-0.411731	-0.779591	13.578030	-3.053230	0.000000	0.000000	21.489789	-6.040029	-2.311435	8.884292	-20.468508	53.590276	39.876038	76.989753	2.615426	-1.049478	15.851220	2.913831	145.755307	-1.302335	-4.693510	0.197395	-18.187032
0.237288	4.437154	-3.314250	90.776575	0.174528	0.660850	0.623244	7.484557	4.597272	-7.554247	6.415679	0.111975	25.813713	-1.816929	0.000000	4.643209	-5.312258	-6.080804	1.599472	0.027916	30.692468	12.710616	0.000000	-0.098729	1.193113	-0.444723	-0.183349	1.586840	-0.472518	-0.162202	2.900935	-0.472518	-0.112837	2.900935	-0.389133	-0.091680	2.432996	-0.361338	-0.056414	1.848132	-0.333542	-0.705211	13.496732	-2.473417	0.000000	0.000000	21.521858	-5.708185	-3.113621	9.579253	-20.618869	56.951997	42.044021	73.096865	3.476735	-1.570957	16.989905	4.389086	148.173988	-2.284126	-6.136721	6.061365	-21.033996
0.254237	4.388075	-3.243629	90.681414	0.174416	0.661318	0.622963	7.339889	4.563038	-7.135550	6.545157	0.114235	25.238522	-2.412341	0.000000	4.502101	-5.252435	-6.094005	1.617265	0.028227	30.762505	12.363932	0.000000	-0.091311	1.182241	-0.362277	-0.169573	1.572381	-0.384919	-0.150014	2.874501	-0.384919	-0.104359	2.874501	-0.316993	-0.084791	2.410826	-0.294350	-0.052175	1.831291	-0.271708	-0.652223	13.373747	-2.014877	0.000000	0.000000	21.556973	-5.357588	-3.697771	10.351543	-20.664060	60.225629	44.213003	68.728160	4.245772	-2.035474	17.796781	5.417295	148.148111	-2.110061	-5.155521	11.776736	-23.062491
